<?xml version="1.0" standalone="no"?><!DOCTYPE svg PUBLIC "-//W3C//DTD SVG 1.1//EN" "http://www.w3.org/Graphics/SVG/1.1/DTD/svg11.dtd"><svg t="1621139097002" class="icon" viewBox="0 0 1024 1024" version="1.1" xmlns="http://www.w3.org/2000/svg" p-id="6498" xmlns:xlink="http://www.w3.org/1999/xlink" width="200" height="200"><defs><style type="text/css"></style></defs><path d="M877.3 255.7c-25.8-36.5-56.7-68.8-92-96.1C749.6 132 710.1 110 668 94.3c-18.6-7-39.4 2.5-46.3 21.1-7 18.6 2.5 39.4 21.1 46.3 71 26.5 131.7 73.4 175.6 135.6 44.9 63.5 68.6 138.4 68.6 216.5 0 100.3-39.1 194.7-110 265.6-70.9 70.9-165.3 110-265.6 110-100.3 0-194.7-39.1-265.6-110s-110-165.3-110-265.6c0-78.1 23.7-152.9 68.6-216.5 43.9-62.2 104.7-109 175.6-135.6 18.6-7 28.1-27.7 21.1-46.3-7-18.6-27.7-28.1-46.3-21.1-42.1 15.7-81.5 37.7-117.2 65.3-35.3 27.3-66.3 59.7-92 96.1-53.5 75.7-81.8 165-81.8 258 0 60.4 11.8 119 35.2 174.2 22.5 53.3 54.8 101.2 95.9 142.3 41.1 41.1 89 73.4 142.3 95.9 55.2 23.4 113.8 35.2 174.2 35.2 60.4 0 119-11.8 174.2-35.2 53.3-22.5 101.2-54.8 142.3-95.9 41.1-41.1 73.4-89 95.9-142.3 23.4-55.2 35.2-113.8 35.2-174.2 0.1-93-28.2-182.2-81.7-258z" p-id="6499"></path><path d="M511.4 543.6c19.8 0 36-16.2 36-36V100.7c0-19.8-16.2-36-36-36s-36 16.2-36 36v406.9c0 19.8 16.2 36 36 36z" p-id="6500"></path></svg>